<svg id="DesignRepoLogo" xmlns="http://www.w3.org/2000/svg" viewBox="0 0 1100 1100"><style>.st0{fill:none;stroke:#fff}.st0,.st1,.st2,.st3,.st4,.st5,.st6,.st7{stroke-width:12;stroke-linejoin:round;stroke-miterlimit:10}.st1{fill:none;stroke:#001826}.st2,.st3,.st4,.st5,.st6,.st7{stroke:#0071bc}.st2{stroke-opacity:0;fill:#fff}.st3,.st4,.st5,.st6,.st7{fill:none}.st4,.st5,.st6,.st7{fill:#0071bc;stroke:#fff;stroke-opacity:0}.st5,.st6,.st7{stroke:#0071bc}.st6,.st7{fill:#fff;stroke:#001826}.st7{fill:#001826;stroke:#fff}</style><path class="st0" d="M407.5 899.997c0 78.701 63.799 142.5 142.5 142.5 26.573 0 51.447-7.275 72.74-19.94l-195.3-195.3c-12.665 21.293-19.94 46.167-19.94 72.74zM692.5 899.997c0-78.701-63.799-142.5-142.5-142.5-26.573 0-51.447 7.275-72.74 19.94l195.3 195.3c12.665-21.293 19.94-46.167 19.94-72.74z"/><path class="st0" d="M672.56 972.737l-195.3-195.3a143.214 143.214 0 0 0-49.819 49.819l195.3 195.3a143.197 143.197 0 0 0 49.819-49.819zM757.5 900c0 78.701 63.799 142.5 142.5 142.5 26.573 0 51.447-7.275 72.74-19.94l-195.3-195.3c-12.665 21.293-19.94 46.167-19.94 72.74zM1042.5 900c0-78.701-63.799-142.5-142.5-142.5-26.573 0-51.447 7.275-72.74 19.94l195.3 195.3c12.665-21.293 19.94-46.167 19.94-72.74z"/><path class="st0" d="M1022.56 972.74l-195.3-195.3a143.214 143.214 0 0 0-49.819 49.819l195.3 195.3a143.197 143.197 0 0 0 49.819-49.819z"/><path class="st1" d="M57.5 900c0 78.701 63.799 142.5 142.5 142.5 26.573 0 51.447-7.275 72.74-19.94l-195.3-195.3C64.775 848.553 57.5 873.427 57.5 900zM342.5 900c0-78.701-63.799-142.5-142.5-142.5-26.573 0-51.447 7.275-72.74 19.94l195.3 195.3c12.665-21.293 19.94-46.167 19.94-72.74z"/><path class="st1" d="M322.56 972.74l-195.3-195.3a143.214 143.214 0 0 0-49.819 49.819l195.3 195.3a143.197 143.197 0 0 0 49.819-49.819z"/><path class="st2" d="M407.5 549.596c0 78.701 63.799 142.5 142.5 142.5 26.573 0 51.447-7.275 72.74-19.94l-195.3-195.3c-12.665 21.293-19.94 46.167-19.94 72.74zM692.5 549.596c0-78.701-63.799-142.5-142.5-142.5-26.573 0-51.447 7.275-72.74 19.94l195.3 195.3c12.665-21.293 19.94-46.167 19.94-72.74zM672.56 622.336l-195.3-195.3a143.214 143.214 0 0 0-49.819 49.819l195.3 195.3a143.197 143.197 0 0 0 49.819-49.819z"/><path class="st3" d="M757.5 549.593c0 78.701 63.799 142.5 142.5 142.5 26.573 0 51.447-7.275 72.74-19.94l-195.3-195.3c-12.665 21.293-19.94 46.167-19.94 72.74zM1042.5 549.593c0-78.701-63.799-142.5-142.5-142.5-26.573 0-51.447 7.275-72.74 19.94l195.3 195.3c12.665-21.293 19.94-46.167 19.94-72.74z"/><path class="st3" d="M1022.56 622.333l-195.3-195.3a143.214 143.214 0 0 0-49.819 49.819l195.3 195.3a143.197 143.197 0 0 0 49.819-49.819z"/><path class="st4" d="M57.5 549.593c0 78.701 63.799 142.5 142.5 142.5 26.573 0 51.447-7.275 72.74-19.94l-195.3-195.3c-12.665 21.293-19.94 46.167-19.94 72.74zM342.5 549.593c0-78.701-63.799-142.5-142.5-142.5-26.573 0-51.447 7.275-72.74 19.94l195.3 195.3c12.665-21.293 19.94-46.167 19.94-72.74zM322.56 622.333l-195.3-195.3a143.214 143.214 0 0 0-49.819 49.819l195.3 195.3a143.197 143.197 0 0 0 49.819-49.819z"/><path class="st5" d="M407.5 200c0 78.701 63.799 142.5 142.5 142.5 26.573 0 51.447-7.275 72.74-19.94l-195.3-195.3c-12.665 21.293-19.94 46.167-19.94 72.74zM692.5 200c0-78.701-63.799-142.5-142.5-142.5-26.573 0-51.447 7.275-72.74 19.94l195.3 195.3c12.665-21.293 19.94-46.167 19.94-72.74zM672.56 272.74l-195.3-195.3a143.214 143.214 0 0 0-49.819 49.819l195.3 195.3a143.197 143.197 0 0 0 49.819-49.819z"/><path class="st6" d="M757.5 200c0 78.701 63.799 142.5 142.5 142.5 26.573 0 51.447-7.275 72.74-19.94l-195.3-195.3c-12.665 21.293-19.94 46.167-19.94 72.74zM1042.5 200c0-78.701-63.799-142.5-142.5-142.5-26.573 0-51.447 7.275-72.74 19.94l195.3 195.3c12.665-21.293 19.94-46.167 19.94-72.74z"/><path class="st6" d="M1022.56 272.74l-195.3-195.3a143.214 143.214 0 0 0-49.819 49.819l195.3 195.3a143.197 143.197 0 0 0 49.819-49.819z"/><path class="st7" d="M57.5 200c0 78.701 63.799 142.5 142.5 142.5 26.573 0 51.447-7.275 72.74-19.94l-195.3-195.3C64.775 148.553 57.5 173.427 57.5 200zM342.5 200c0-78.701-63.799-142.5-142.5-142.5-26.573 0-51.447 7.275-72.74 19.94l195.3 195.3c12.665-21.293 19.94-46.167 19.94-72.74z"/><path class="st7" d="M322.56 272.74l-195.3-195.3a143.214 143.214 0 0 0-49.819 49.819l195.3 195.3a143.197 143.197 0 0 0 49.819-49.819z"/></svg>