<svg id="Logo_x2F_Abmessungen" xmlns="http://www.w3.org/2000/svg" viewBox="0 0 300 401"><style>.st0,.st1{fill:none;stroke:url(#SVGID_1_);stroke-miterlimit:10}.st1{stroke:#001826;stroke-linecap:round;stroke-linejoin:round}.st2{fill:#001826}.st3,.st4,.st5{fill:none;stroke:url(#SVGID_2_);stroke-miterlimit:10}.st4,.st5{stroke:url(#SVGID_3_)}.st5{stroke:#0071bc;stroke-linecap:round;stroke-linejoin:round}.st6{fill:#0071bc}.st10,.st7,.st8,.st9{fill:none;stroke:#999;stroke-miterlimit:10}.st10,.st8,.st9{stroke:url(#SVGID_4_)}.st10,.st9{stroke:url(#SVGID_5_)}.st10{stroke:#d45c56;stroke-linecap:round;stroke-linejoin:round}.st11{fill:#d45c56}.st12,.st13,.st14,.st15{fill:none;stroke:url(#SVGID_6_);stroke-miterlimit:10}.st13,.st14,.st15{stroke:#001826}.st14,.st15{stroke:#0071bc}.st15{stroke:#d45c56}.st16{fill:#666}</style><linearGradient id="SVGID_1_" gradientUnits="userSpaceOnUse" x1="150" y1="299.5" x2="150" y2="315.5"><stop offset="0" stop-color="#999" stop-opacity="0"/><stop offset=".013" stop-color="#999" stop-opacity=".859"/><stop offset=".015" stop-color="#999"/><stop offset=".939" stop-color="#999"/><stop offset=".942" stop-color="#767b7f"/><stop offset=".945" stop-color="#576167"/><stop offset=".949" stop-color="#3b4a53"/><stop offset=".954" stop-color="#253842"/><stop offset=".959" stop-color="#142935"/><stop offset=".966" stop-color="#091f2d"/><stop offset=".975" stop-color="#021a27"/><stop offset="1" stop-color="#001826"/></linearGradient><path class="st0" d="M25 300h250v15H25z"/><path class="st1" d="M30 319.993l-5-5 4.985-4.986M270 319.993l5-5-4.985-4.986"/><path class="st1" d="M30 319.993l-5-5 4.985-4.986M270 319.993l5-5-4.985-4.986"/><path class="st2" d="M140.048 319.392H140l-2.8 1.488h-.112l-.176-.64v-.097l3.424-2.063h.8v11.84h-1.088v-10.528zM147.904 330.096c-1.397 0-2.456-.509-3.176-1.527-.72-1.019-1.08-2.536-1.08-4.553 0-2.016.36-3.536 1.08-4.56.72-1.024 1.779-1.536 3.176-1.536 1.397 0 2.458.512 3.184 1.536.725 1.023 1.088 2.544 1.088 4.56 0 2.017-.363 3.534-1.088 4.553-.725 1.018-1.787 1.527-3.184 1.527zm0-.944c2.123 0 3.184-1.713 3.184-5.137 0-3.435-1.062-5.151-3.184-5.151-2.123 0-3.184 1.717-3.184 5.151 0 3.424 1.061 5.137 3.184 5.137zM158.288 330.096c-1.397 0-2.456-.509-3.176-1.527-.72-1.019-1.08-2.536-1.08-4.553 0-2.016.36-3.536 1.08-4.56.72-1.024 1.779-1.536 3.176-1.536 1.397 0 2.458.512 3.184 1.536.725 1.023 1.088 2.544 1.088 4.56 0 2.017-.363 3.534-1.088 4.553-.725 1.018-1.787 1.527-3.184 1.527zm0-.944c2.123 0 3.184-1.713 3.184-5.137 0-3.435-1.062-5.151-3.184-5.151-2.123 0-3.184 1.717-3.184 5.151 0 3.424 1.061 5.137 3.184 5.137z"/><linearGradient id="SVGID_2_" gradientUnits="userSpaceOnUse" x1="150" y1="299.5" x2="150" y2="315.5"><stop offset="0" stop-color="#999" stop-opacity="0"/><stop offset=".013" stop-color="#999" stop-opacity=".859"/><stop offset=".015" stop-color="#999"/><stop offset=".939" stop-color="#999"/><stop offset=".942" stop-color="#767b7f"/><stop offset=".945" stop-color="#576167"/><stop offset=".949" stop-color="#3b4a53"/><stop offset=".954" stop-color="#253842"/><stop offset=".959" stop-color="#142935"/><stop offset=".966" stop-color="#091f2d"/><stop offset=".975" stop-color="#021a27"/><stop offset="1" stop-color="#001826"/></linearGradient><path class="st3" d="M25 300h250v15H25z"/><path class="st1" d="M30 319.993l-5-5 4.985-4.986M270 319.993l5-5-4.985-4.986"/><path class="st2" d="M140.048 319.392H140l-2.8 1.488h-.112l-.176-.64v-.097l3.424-2.063h.8v11.84h-1.088v-10.528zM147.904 330.096c-1.397 0-2.456-.509-3.176-1.527-.72-1.019-1.08-2.536-1.08-4.553 0-2.016.36-3.536 1.08-4.56.72-1.024 1.779-1.536 3.176-1.536 1.397 0 2.458.512 3.184 1.536.725 1.023 1.088 2.544 1.088 4.56 0 2.017-.363 3.534-1.088 4.553-.725 1.018-1.787 1.527-3.184 1.527zm0-.944c2.123 0 3.184-1.713 3.184-5.137 0-3.435-1.062-5.151-3.184-5.151-2.123 0-3.184 1.717-3.184 5.151 0 3.424 1.061 5.137 3.184 5.137zM158.288 330.096c-1.397 0-2.456-.509-3.176-1.527-.72-1.019-1.08-2.536-1.08-4.553 0-2.016.36-3.536 1.08-4.56.72-1.024 1.779-1.536 3.176-1.536 1.397 0 2.458.512 3.184 1.536.725 1.023 1.088 2.544 1.088 4.56 0 2.017-.363 3.534-1.088 4.553-.725 1.018-1.787 1.527-3.184 1.527zm0-.944c2.123 0 3.184-1.713 3.184-5.137 0-3.435-1.062-5.151-3.184-5.151-2.123 0-3.184 1.717-3.184 5.151 0 3.424 1.061 5.137 3.184 5.137z"/><linearGradient id="SVGID_3_" gradientUnits="userSpaceOnUse" x1="150" y1="174.498" x2="150" y2="340.5"><stop offset="0" stop-color="#7da3ba" stop-opacity="0"/><stop offset=".011" stop-color="#7da3ba" stop-opacity=".859"/><stop offset=".012" stop-color="#7da3ba"/><stop offset=".991" stop-color="#7da3ba"/><stop offset=".991" stop-color="#76a0ba"/><stop offset=".991" stop-color="#5794bb"/><stop offset=".992" stop-color="#3b89bb"/><stop offset=".992" stop-color="#2580bb"/><stop offset=".993" stop-color="#1479bc"/><stop offset=".993" stop-color="#0974bc"/><stop offset=".994" stop-color="#0272bc"/><stop offset=".997" stop-color="#0071bc"/></linearGradient><path class="st4" d="M31.25 174.997h237.5V340H31.25z"/><path class="st5" d="M36 344.993l-5-5 4.985-4.986M264 344.993l5-5-4.985-4.986"/><path class="st5" d="M36 344.993l-5-5 4.985-4.986M264 344.993l5-5-4.985-4.986"/><path class="st6" d="M145.632 342.904c1.365 0 2.397.447 3.096 1.344.698.896 1.048 2.245 1.048 4.048 0 1.077-.115 2.037-.344 2.88-.229.843-.568 1.555-1.016 2.136-.448.582-1 1.024-1.656 1.328-.656.305-1.405.456-2.248.456a8.818 8.818 0 0 1-2.016-.256l.064-.928a6.564 6.564 0 0 0 1.936.288c1.269 0 2.264-.448 2.984-1.345.72-.896 1.123-2.17 1.208-3.823-.459.395-.971.704-1.536.928s-1.142.336-1.728.336a4.65 4.65 0 0 1-1.512-.232 3.235 3.235 0 0 1-1.168-.68 2.997 2.997 0 0 1-.752-1.096 3.854 3.854 0 0 1-.264-1.464c0-.587.093-1.12.28-1.601.187-.479.448-.893.784-1.239s.744-.613 1.224-.801a4.443 4.443 0 0 1 1.616-.279zm0 6.56c.512 0 1.045-.12 1.6-.36a5.344 5.344 0 0 0 1.472-.936c-.021-1.493-.283-2.598-.784-3.313-.501-.714-1.264-1.071-2.288-1.071-.864 0-1.547.274-2.048.824-.501.549-.752 1.293-.752 2.231 0 .832.245 1.478.736 1.937.491.458 1.179.688 2.064.688zM153.92 355.096c-.374 0-.76-.019-1.16-.056a10.67 10.67 0 0 1-1.208-.185v-.911h.208c.374.074.731.13 1.072.168.341.037.672.056.992.056 1.098 0 1.917-.208 2.456-.624s.808-1.109.808-2.08c0-.448-.075-.824-.224-1.128s-.384-.552-.704-.744c-.32-.191-.728-.333-1.224-.424s-1.091-.146-1.784-.168l-1.2-.032-.112-.096.432-5.792h5.44v.943h-4.576l-.272 4.049c.928.011 1.731.074 2.408.191.677.118 1.232.31 1.664.576s.752.616.96 1.048c.208.433.312.963.312 1.592 0 .641-.099 1.189-.296 1.648-.198.459-.48.832-.848 1.12s-.819.501-1.352.64-1.131.209-1.792.209z"/><path class="st7" d="M31.25 56.248h237.5v237.5H31.25z"/><linearGradient id="SVGID_4_" gradientUnits="userSpaceOnUse" x1="150" y1="174.498" x2="150" y2="340.5"><stop offset="0" stop-color="#7da3ba" stop-opacity="0"/><stop offset=".011" stop-color="#7da3ba" stop-opacity=".859"/><stop offset=".012" stop-color="#7da3ba"/><stop offset=".991" stop-color="#7da3ba"/><stop offset=".991" stop-color="#76a0ba"/><stop offset=".991" stop-color="#5794bb"/><stop offset=".992" stop-color="#3b89bb"/><stop offset=".992" stop-color="#2580bb"/><stop offset=".993" stop-color="#1479bc"/><stop offset=".993" stop-color="#0974bc"/><stop offset=".994" stop-color="#0272bc"/><stop offset=".997" stop-color="#0071bc"/></linearGradient><path class="st8" d="M31.25 174.997h237.5V340H31.25z"/><path class="st5" d="M36 344.993l-5-5 4.985-4.986M264 344.993l5-5-4.985-4.986"/><path class="st6" d="M145.632 342.904c1.365 0 2.397.447 3.096 1.344.698.896 1.048 2.245 1.048 4.048 0 1.077-.115 2.037-.344 2.88-.229.843-.568 1.555-1.016 2.136-.448.582-1 1.024-1.656 1.328-.656.305-1.405.456-2.248.456a8.818 8.818 0 0 1-2.016-.256l.064-.928a6.564 6.564 0 0 0 1.936.288c1.269 0 2.264-.448 2.984-1.345.72-.896 1.123-2.17 1.208-3.823-.459.395-.971.704-1.536.928s-1.142.336-1.728.336a4.65 4.65 0 0 1-1.512-.232 3.235 3.235 0 0 1-1.168-.68 2.997 2.997 0 0 1-.752-1.096 3.854 3.854 0 0 1-.264-1.464c0-.587.093-1.12.28-1.601.187-.479.448-.893.784-1.239s.744-.613 1.224-.801a4.443 4.443 0 0 1 1.616-.279zm0 6.56c.512 0 1.045-.12 1.6-.36a5.344 5.344 0 0 0 1.472-.936c-.021-1.493-.283-2.598-.784-3.313-.501-.714-1.264-1.071-2.288-1.071-.864 0-1.547.274-2.048.824-.501.549-.752 1.293-.752 2.231 0 .832.245 1.478.736 1.937.491.458 1.179.688 2.064.688zM153.92 355.096c-.374 0-.76-.019-1.16-.056a10.67 10.67 0 0 1-1.208-.185v-.911h.208c.374.074.731.13 1.072.168.341.037.672.056.992.056 1.098 0 1.917-.208 2.456-.624s.808-1.109.808-2.08c0-.448-.075-.824-.224-1.128s-.384-.552-.704-.744c-.32-.191-.728-.333-1.224-.424s-1.091-.146-1.784-.168l-1.2-.032-.112-.096.432-5.792h5.44v.943h-4.576l-.272 4.049c.928.011 1.731.074 2.408.191.677.118 1.232.31 1.664.576s.752.616.96 1.048c.208.433.312.963.312 1.592 0 .641-.099 1.189-.296 1.648-.198.459-.48.832-.848 1.12s-.819.501-1.352.64-1.131.209-1.792.209z"/><path class="st7" d="M31.25 56.248h237.5v237.5H31.25z"/><linearGradient id="SVGID_5_" gradientUnits="userSpaceOnUse" x1="268.731" y1="174.5" x2="268.731" y2="365.5"><stop offset="0" stop-color="#d39e9c" stop-opacity="0"/><stop offset=".013" stop-color="#d39e9c" stop-opacity=".859"/><stop offset=".015" stop-color="#d39e9c"/><stop offset=".988" stop-color="#d39e9c"/><stop offset=".988" stop-color="#d39491"/><stop offset=".989" stop-color="#d37f7b"/><stop offset=".99" stop-color="#d46f6a"/><stop offset=".991" stop-color="#d4645f"/><stop offset=".993" stop-color="#d45e58"/><stop offset=".997" stop-color="#d45c56"/></linearGradient><path class="st9" d="M263.731 175h10v190h-10z"/><path class="st10" d="M265 366.997l-2-2 1.994-1.994M272 366.997l2-2-1.994-1.994"/><path class="st10" d="M265 366.997l-2-2 1.994-1.994M272 366.997l2-2-1.994-1.994"/><path class="st11" d="M264.418 376.416v-.096l3.968-8.4h.08l.928.176.032.112-3.776 7.824v.08h4.448l.336-4.16h.736v4.16h1.776v.911h-1.776v2.896h-1.072v-2.896h-5.392l-.288-.607z"/><linearGradient id="SVGID_6_" gradientUnits="userSpaceOnUse" x1="268.731" y1="174.5" x2="268.731" y2="365.5"><stop offset="0" stop-color="#d39e9c" stop-opacity="0"/><stop offset=".013" stop-color="#d39e9c" stop-opacity=".859"/><stop offset=".015" stop-color="#d39e9c"/><stop offset=".988" stop-color="#d39e9c"/><stop offset=".988" stop-color="#d39491"/><stop offset=".989" stop-color="#d37f7b"/><stop offset=".99" stop-color="#d46f6a"/><stop offset=".991" stop-color="#d4645f"/><stop offset=".993" stop-color="#d45e58"/><stop offset=".997" stop-color="#d45c56"/></linearGradient><path class="st12" d="M263.731 175h10v190h-10z"/><path class="st10" d="M265 366.997l-2-2 1.994-1.994M272 366.997l2-2-1.994-1.994"/><path class="st11" d="M264.418 376.416v-.096l3.968-8.4h.08l.928.176.032.112-3.776 7.824v.08h4.448l.336-4.16h.736v4.16h1.776v.911h-1.776v2.896h-1.072v-2.896h-5.392l-.288-.607z"/><path class="st13" d="M25 50h250v250H25z"/><path class="st14" d="M31.25 174.997c0 65.584 53.166 118.75 118.75 118.75 22.145 0 42.873-6.063 60.617-16.617L47.867 114.38c-10.554 17.745-16.617 38.473-16.617 60.617zM268.75 174.997c0-65.584-53.166-118.75-118.75-118.75-22.145 0-42.873 6.063-60.617 16.617l162.75 162.75c10.554-17.744 16.617-38.472 16.617-60.617z"/><path class="st14" d="M252.133 235.614L89.383 72.864a119.352 119.352 0 0 0-41.516 41.517l162.75 162.75a119.352 119.352 0 0 0 41.516-41.517z"/><g><path class="st14" d="M31.25 174.997c0 65.584 53.166 118.75 118.75 118.75 22.145 0 42.873-6.063 60.617-16.617L47.867 114.38c-10.554 17.745-16.617 38.473-16.617 60.617zM268.75 174.997c0-65.584-53.166-118.75-118.75-118.75-22.145 0-42.873 6.063-60.617 16.617l162.75 162.75c10.554-17.744 16.617-38.472 16.617-60.617z"/><path class="st14" d="M252.133 235.614L89.383 72.864a119.352 119.352 0 0 0-41.516 41.517l162.75 162.75a119.352 119.352 0 0 0 41.516-41.517z"/></g><path class="st15" d="M273.75 174.997c0-68.236-55.514-123.75-123.75-123.75-20.968 0-41.551 5.309-59.783 15.38l-.048-.048-3.312 1.97-.03.017-5.526 3.287.131.131a124.738 124.738 0 0 0-34.445 34.446l-.131-.131-3.287 5.526-1.988 3.342.048.048c-10.071 18.231-15.38 38.813-15.38 59.782 0 68.236 55.514 123.75 123.75 123.75 20.969 0 41.551-5.308 59.783-15.379l.048.048 3.312-1.97.03-.017 5.526-3.287-.131-.131a124.708 124.708 0 0 0 34.445-34.445l.131.131 3.287-5.526 1.988-3.342-.048-.048c10.071-18.232 15.38-38.815 15.38-59.784z"/><path class="st15" d="M150 61.247c62.722 0 113.75 51.028 113.75 113.75 0 18.306-4.396 36.288-12.763 52.399L97.601 74.011c16.112-8.367 34.095-12.764 52.399-12.764zM150 288.747c-62.722 0-113.75-51.028-113.75-113.75 0-18.305 4.396-36.287 12.763-52.398l153.386 153.385c-16.112 8.368-34.094 12.763-52.399 12.763zM211.355 270.797l-78.577-78.577L54.2 113.643a114.63 114.63 0 0 1 34.445-34.445l78.577 78.577 78.577 78.577a114.65 114.65 0 0 1-34.444 34.445z"/><path class="st15" d="M273.75 174.997c0-68.236-55.514-123.75-123.75-123.75-20.968 0-41.551 5.309-59.783 15.38l-.048-.048-3.312 1.97-.03.017-5.526 3.287.131.131a124.738 124.738 0 0 0-34.445 34.446l-.131-.131-3.287 5.526-1.988 3.342.048.048c-10.071 18.231-15.38 38.813-15.38 59.782 0 68.236 55.514 123.75 123.75 123.75 20.969 0 41.551-5.308 59.783-15.379l.048.048 3.312-1.97.03-.017 5.526-3.287-.131-.131a124.708 124.708 0 0 0 34.445-34.445l.131.131 3.287-5.526 1.988-3.342-.048-.048c10.071-18.232 15.38-38.815 15.38-59.784zM150 61.247c62.722 0 113.75 51.028 113.75 113.75 0 18.306-4.396 36.288-12.763 52.399L97.601 74.011c16.112-8.367 34.095-12.764 52.399-12.764zm0 227.5c-62.722 0-113.75-51.028-113.75-113.75 0-18.305 4.396-36.287 12.763-52.398l153.386 153.385c-16.112 8.368-34.094 12.763-52.399 12.763zm61.355-17.95l-78.577-78.577L54.2 113.643a114.63 114.63 0 0 1 34.445-34.445l78.577 78.577 78.577 78.577a114.65 114.65 0 0 1-34.444 34.445z"/><g><path class="st16" d="M25.048 45.688l6.048-17.567h5.064l6.048 17.567v.192h-3.312l-1.608-4.632h-7.344L28.36 45.88h-3.312v-.192zm11.424-7.128l-1.608-4.704-1.104-3.336h-.288l-1.08 3.336-1.632 4.704h5.712zM50.656 46.12c-2.048 0-4.224-.12-6.528-.36V28.24c1.2-.128 2.28-.22 3.24-.276.96-.056 1.896-.084 2.808-.084 2.56 0 4.412.393 5.556 1.176 1.144.784 1.716 2.04 1.716 3.769 0 1.023-.26 1.876-.78 2.556-.52.681-1.276 1.132-2.268 1.356v.096c1.184.224 2.084.7 2.7 1.428.616.729.924 1.677.924 2.844 0 1.696-.604 2.956-1.812 3.78-1.209.823-3.06 1.235-5.556 1.235zm-.096-10.368c1.28 0 2.184-.204 2.712-.612.528-.408.792-1.107.792-2.1 0-.976-.284-1.668-.852-2.076-.568-.408-1.516-.612-2.844-.612-.608 0-1.156.013-1.644.036-.488.024-.94.068-1.356.132v5.232h3.192zm.048 7.895c1.376 0 2.392-.228 3.048-.684.656-.456.984-1.172.984-2.148 0-.96-.304-1.663-.912-2.111-.608-.448-1.592-.672-2.952-.672h-3.408v5.472c.32.064.716.104 1.188.12s1.155.023 2.052.023zM60.832 28.12h4.656l3.792 9.456 1.248 3.72h.168l1.272-3.72 3.792-9.456h4.656v17.76h-3.048V32.056h-.192l-1.776 4.92-3.36 8.185h-2.856l-3.36-8.185-1.776-4.92h-.168V45.88h-3.048V28.12zM84.16 28.12h12.312v2.688h-8.904v4.776h8.16v2.688h-8.16v4.92h9.12v2.688H84.16V28.12zM104.823 46.168c-.432 0-.904-.021-1.416-.061a40.503 40.503 0 0 1-1.572-.155c-.537-.064-1.072-.145-1.608-.24s-1.052-.2-1.548-.313v-2.783c1.088.256 2.136.456 3.144.6 1.008.145 1.912.216 2.712.216 2.432 0 3.648-.76 3.648-2.279 0-.433-.084-.792-.252-1.08s-.404-.536-.708-.744a4.35 4.35 0 0 0-1.128-.528 19.883 19.883 0 0 0-1.488-.408c-.976-.224-1.82-.483-2.532-.779s-1.304-.66-1.776-1.093a3.967 3.967 0 0 1-1.044-1.523c-.225-.584-.336-1.276-.336-2.076 0-.784.156-1.492.468-2.124s.756-1.168 1.332-1.608c.576-.439 1.276-.779 2.1-1.02.824-.24 1.756-.36 2.796-.36.736 0 1.5.048 2.292.145a32.98 32.98 0 0 1 2.868.504v2.76a18.008 18.008 0 0 0-2.472-.516 17.246 17.246 0 0 0-2.352-.181c-1.104 0-1.964.204-2.58.612-.616.408-.924.98-.924 1.716 0 .368.068.696.204.984.136.288.348.54.636.756s.664.412 1.128.588c.464.177 1.032.345 1.704.504.88.208 1.664.448 2.352.72.688.272 1.272.608 1.752 1.009.48.399.848.884 1.104 1.452.256.567.384 1.252.384 2.052 0 1.712-.584 3.016-1.752 3.912-1.168.893-2.88 1.341-5.136 1.341zM119.583 46.168c-.432 0-.904-.021-1.416-.061a40.503 40.503 0 0 1-1.572-.155c-.537-.064-1.072-.145-1.608-.24s-1.052-.2-1.548-.313v-2.783c1.088.256 2.136.456 3.144.6 1.008.145 1.912.216 2.712.216 2.432 0 3.648-.76 3.648-2.279 0-.433-.084-.792-.252-1.08s-.404-.536-.708-.744a4.35 4.35 0 0 0-1.128-.528 19.883 19.883 0 0 0-1.488-.408c-.976-.224-1.82-.483-2.532-.779s-1.304-.66-1.776-1.093a3.967 3.967 0 0 1-1.044-1.523c-.225-.584-.336-1.276-.336-2.076 0-.784.156-1.492.468-2.124s.756-1.168 1.332-1.608c.576-.439 1.276-.779 2.1-1.02.824-.24 1.756-.36 2.796-.36.736 0 1.5.048 2.292.145a32.98 32.98 0 0 1 2.868.504v2.76a18.008 18.008 0 0 0-2.472-.516 17.246 17.246 0 0 0-2.352-.181c-1.104 0-1.964.204-2.58.612-.616.408-.924.98-.924 1.716 0 .368.068.696.204.984.136.288.348.54.636.756s.664.412 1.128.588c.464.177 1.032.345 1.704.504.88.208 1.664.448 2.352.72.688.272 1.272.608 1.752 1.009.48.399.848.884 1.104 1.452.256.567.384 1.252.384 2.052 0 1.712-.584 3.016-1.752 3.912-1.168.893-2.88 1.341-5.136 1.341zM136.647 46.12c-1.408 0-2.601-.148-3.576-.444-.976-.296-1.772-.752-2.388-1.368-.616-.615-1.06-1.396-1.332-2.34-.272-.943-.408-2.063-.408-3.36V28.096h3.384v10.561c0 1.632.352 2.819 1.056 3.563.704.744 1.792 1.116 3.264 1.116 1.472 0 2.556-.368 3.252-1.104.696-.735 1.044-1.928 1.044-3.575V28.096h3.408v10.512c0 1.297-.14 2.417-.42 3.36-.28.944-.724 1.725-1.332 2.34-.608.616-1.4 1.072-2.376 1.368s-2.168.444-3.576.444zM147.927 28.12h2.784l8.088 10.632 1.416 2.063h.192V28.12h3v17.76h-2.784l-8.016-10.512-1.488-2.16h-.192V45.88h-3V28.12zM175.023 46.144c-2.944 0-5.132-.752-6.564-2.256-1.432-1.504-2.148-3.792-2.148-6.864 0-6.111 3.016-9.168 9.048-9.168.768 0 1.588.049 2.46.145s1.676.24 2.412.432v2.76a34.625 34.625 0 0 0-2.604-.407c-.729-.08-1.396-.12-2.004-.12-1.072 0-1.977.116-2.712.348-.736.232-1.332.601-1.788 1.104-.456.504-.789 1.16-.996 1.968-.208.808-.312 1.788-.312 2.939 0 1.137.096 2.104.288 2.904.192.801.496 1.452.912 1.956s.964.872 1.644 1.104c.68.231 1.5.348 2.46.348.288 0 .624-.012 1.008-.036.384-.023.768-.06 1.152-.108v-6.336h3.144v8.473a26.58 26.58 0 0 1-2.82.588c-.984.149-1.844.226-2.58.226zM183.639 28.12h12.312v2.688h-8.904v4.776h8.16v2.688h-8.16v4.92h9.12v2.688h-12.528V28.12zM199.07 28.12h2.784l8.088 10.632 1.416 2.063h.192V28.12h3v17.76h-2.784l-8.016-10.512-1.488-2.16h-.192V45.88h-3V28.12z"/></g></svg>