<svg id="Logo_x2F_Logo" xmlns="http://www.w3.org/2000/svg" viewBox="0 0 650 650"><style>.st0,.st1{fill:#001826;stroke:#fff;stroke-width:26;stroke-linejoin:round;stroke-miterlimit:10}.st1{fill:#0071bc}</style><path class="st0" d="M16.25 325c0 170.518 138.232 308.75 308.75 308.75 57.576 0 111.469-15.763 157.604-43.204l-423.15-423.15C32.013 213.531 16.25 267.424 16.25 325zM633.75 325c0-170.518-138.232-308.75-308.75-308.75-57.576 0-111.469 15.763-157.604 43.204l423.15 423.15C617.987 436.469 633.75 382.576 633.75 325z"/><path class="st1" d="M590.546 482.604l-423.15-423.15A310.3 310.3 0 0 0 59.454 167.396l423.15 423.15a310.3 310.3 0 0 0 107.942-107.942z"/></svg>