<svg id="Logo_x2F_Variationen_x2F_Logo_x5F_Alt_x5F_1" xmlns="http://www.w3.org/2000/svg" viewBox="0 0 300 300"><style>.st0{fill:#001826;stroke:#fff;stroke-width:12;stroke-linejoin:round;stroke-miterlimit:10;stroke-opacity:0}</style><path class="st0" d="M7.5 150c0 78.701 63.799 142.5 142.5 142.5 26.573 0 51.447-7.275 72.74-19.94L27.44 77.26C14.775 98.553 7.5 123.427 7.5 150zM292.5 150C292.5 71.299 228.701 7.5 150 7.5c-26.573 0-51.447 7.275-72.74 19.94l195.3 195.3c12.665-21.293 19.94-46.167 19.94-72.74z"/><path class="st0" d="M272.56 222.74L77.26 27.44a143.203 143.203 0 0 0-49.82 49.82l195.3 195.3a143.203 143.203 0 0 0 49.82-49.82z"/></svg>