<svg id="Logo_x2F_Variationen_x2F_Logo_x5F_Alt_x5F_3" xmlns="http://www.w3.org/2000/svg" viewBox="0 0 300 300"><style>.st0{fill:#0071bc;stroke:#fff;stroke-width:12;stroke-linejoin:round;stroke-miterlimit:10;stroke-opacity:0}</style><path class="st0" d="M7.5 149.593c0 78.701 63.799 142.5 142.5 142.5 26.573 0 51.447-7.275 72.74-19.94l-195.3-195.3C14.775 98.146 7.5 123.02 7.5 149.593zM292.5 149.593c0-78.701-63.799-142.5-142.5-142.5-26.573 0-51.447 7.275-72.74 19.94l195.3 195.3c12.665-21.293 19.94-46.167 19.94-72.74z"/><path class="st0" d="M272.56 222.333l-195.3-195.3a143.203 143.203 0 0 0-49.82 49.82l195.3 195.3a143.203 143.203 0 0 0 49.82-49.82z"/></svg>