<svg id="Website_x2F_Logo_x5F_Header" xmlns="http://www.w3.org/2000/svg" viewBox="0 0 600 135"><style>.st0,.st1{fill:#001826;stroke:#fff;stroke-width:4.6316;stroke-linejoin:round;stroke-miterlimit:10}.st1{fill:#0071bc}.st2{fill:#001826}</style><path class="st0" d="M7.5 68c0 30.376 24.624 55 55 55 10.256 0 19.857-2.808 28.075-7.696L15.196 39.925C10.308 48.143 7.5 57.744 7.5 68zM117.5 68c0-30.376-24.624-55-55-55-10.256 0-19.857 2.808-28.075 7.696l75.379 75.379C114.692 87.857 117.5 78.256 117.5 68z"/><path class="st1" d="M109.804 96.075L34.425 20.696a55.277 55.277 0 0 0-19.229 19.229l75.379 75.379a55.285 55.285 0 0 0 19.229-19.229z"/><path class="st0" d="M7.5 68c0 30.376 24.624 55 55 55 10.256 0 19.857-2.808 28.075-7.696L15.196 39.925C10.308 48.143 7.5 57.744 7.5 68zM117.5 68c0-30.376-24.624-55-55-55-10.256 0-19.857 2.808-28.075 7.696l75.379 75.379C114.692 87.857 117.5 78.256 117.5 68z"/><path class="st1" d="M109.804 96.075L34.425 20.696a55.277 55.277 0 0 0-19.229 19.229l75.379 75.379a55.285 55.285 0 0 0 19.229-19.229z"/><path class="st2" d="M188.007 103.534c-10.86 0-18.931-2.805-24.21-8.415-5.28-5.609-7.92-14.205-7.92-25.785 0-11.579 2.61-20.205 7.83-25.875 5.22-5.67 13.109-8.505 23.67-8.505 2.039 0 4.334.121 6.885.359 2.549.241 5.355.601 8.415 1.08v10.351c-1.68-.239-3.181-.435-4.5-.585-1.32-.149-2.52-.271-3.6-.36s-2.085-.164-3.015-.225c-.931-.06-1.845-.09-2.745-.09-3.6 0-6.675.42-9.225 1.26-2.551.841-4.605 2.205-6.165 4.095-1.561 1.89-2.7 4.351-3.42 7.38-.72 3.03-1.08 6.736-1.08 11.115 0 4.32.36 7.98 1.08 10.979.72 3.001 1.845 5.445 3.375 7.336 1.53 1.89 3.524 3.255 5.985 4.095 2.459.841 5.459 1.26 9 1.26a51.3 51.3 0 0 0 3.42-.135c1.319-.09 2.64-.194 3.96-.315a48.37 48.37 0 0 0 3.825-.495 74.458 74.458 0 0 0 3.105-.585v10.261c-2.101.54-4.5.974-7.2 1.305-2.7.328-5.19.494-7.47.494zM219.058 120.544l-.09-1.08 7.11-17.55-20.07-46.62v-1.35h13.41l10.08 27.18 2.52 8.28h.72l2.52-8.28 10.44-27.18h13.05v1.35l-27.99 67.05-11.7-1.8zM265.497 29.824h12.51v43.649h6.48l13.59-19.529h13.86l-16.92 22.77-1.98.63v.36l2.07.72 18.36 24.12h-13.86l-15.3-20.97h-6.3v20.97h-12.51v-72.72zM338.757 103.354c-16.141 0-24.21-8.219-24.21-24.659 0-8.4 2.025-14.761 6.075-19.08 4.05-4.32 10.004-6.48 17.865-6.48 13.62 0 20.43 7.231 20.43 21.69 0 1.439-.045 2.73-.135 3.87-.09 1.14-.285 2.22-.585 3.239h-31.32c.18 2.221.554 4.081 1.125 5.58.569 1.501 1.379 2.716 2.43 3.646 1.049.931 2.354 1.59 3.915 1.979 1.559.392 3.449.585 5.67.585 2.52 0 5.294-.193 8.325-.585 3.029-.39 5.805-.944 8.325-1.665l.45 9.09c-2.7.842-5.67 1.517-8.91 2.025-3.24.509-6.39.765-9.45.765zm-.719-41.31c-3.541 0-6.21 1.006-8.01 3.015-1.8 2.012-2.851 5.235-3.15 9.676h20.97c-.121-4.56-.945-7.815-2.475-9.766-1.531-1.949-3.976-2.925-7.335-2.925zM372.237 102.724c-2.281 0-3.42-1.17-3.42-3.51s1.139-3.51 3.42-3.51c1.139 0 2.039.314 2.7.945.66.63.99 1.484.99 2.564 0 1.141-.331 2.011-.99 2.61-.661.602-1.562.901-2.7.901zM404.727 103.174c-8.46 0-12.69-4.32-12.69-12.96v-31.95h-10.71v-4.319h10.89l.72-11.25 3.69-.631v11.881h15.3v4.319h-15.3v31.141c0 6.479 3 9.72 9 9.72 2.039 0 4.289-.36 6.75-1.08v4.14c-2.94.659-5.49.989-7.65.989zM439.917 103.354c-7.02 0-12.345-2.054-15.975-6.165-3.631-4.108-5.445-10.125-5.445-18.045 0-8.46 1.769-14.908 5.31-19.35 3.54-4.439 8.669-6.66 15.39-6.66 5.58 0 9.824 1.815 12.735 5.445 2.91 3.631 4.365 8.955 4.365 15.975 0 2.642-.121 4.531-.36 5.67h-32.85c.36 12.661 6.12 18.99 17.28 18.99 2.16 0 4.365-.209 6.615-.63 2.25-.419 4.665-1.109 7.245-2.07l.45 3.96c-2.221.9-4.666 1.606-7.335 2.115-2.671.509-5.146.765-7.425.765zm-.811-46.17c-5.04 0-8.896 1.636-11.565 4.905-2.67 3.271-4.155 8.086-4.455 14.445h28.8c-.18-6.899-1.26-11.85-3.24-14.851-1.979-2.998-5.16-4.499-9.54-4.499zM487.796 103.354c-14.881 0-22.32-8.339-22.32-25.02 0-16.799 7.439-25.2 22.32-25.2 1.44 0 3.06.105 4.86.315 1.8.211 3.51.495 5.13.854v4.23a32.044 32.044 0 0 0-4.725-.9 42.784 42.784 0 0 0-4.815-.27c-12.001 0-18 6.99-18 20.97 0 7.261 1.424 12.541 4.275 15.84 2.849 3.301 7.364 4.95 13.545 4.95 1.679 0 3.27-.074 4.77-.225 1.499-.149 3.15-.435 4.95-.855v4.14c-1.201.36-2.731.645-4.59.855-1.86.21-3.66.316-5.4.316zM509.125 29.824h4.59v29.88a129.84 129.84 0 0 1 6.525-3.061c1.949-.839 3.749-1.529 5.4-2.069 1.649-.54 3.195-.93 4.635-1.17 1.44-.239 2.88-.36 4.32-.36 4.08 0 7.155 1.051 9.225 3.15 2.07 2.101 3.105 5.46 3.105 10.08v36.27h-4.59v-34.74c0-3.779-.72-6.479-2.16-8.1s-3.69-2.43-6.75-2.43c-2.641 0-5.625.57-8.955 1.71s-6.916 2.67-10.755 4.59v38.97h-4.59v-72.72z"/></svg>