<svg id="Website_x2F_Logo_x5F_Cyke_x5F_Maps_x5F_White" xmlns="http://www.w3.org/2000/svg" viewBox="0 0 600 135"><style>.st0{fill:#fff}.st1{fill:none;stroke:#fff;stroke-width:4.632;stroke-linejoin:round;stroke-miterlimit:10}</style><path class="st0" d="M188.007 103.534c-10.86 0-18.931-2.805-24.21-8.415-5.28-5.609-7.92-14.205-7.92-25.785 0-11.579 2.61-20.205 7.83-25.875 5.22-5.67 13.109-8.505 23.67-8.505 2.039 0 4.334.121 6.885.359 2.549.241 5.355.601 8.415 1.08v10.351c-1.68-.239-3.181-.435-4.5-.585-1.32-.149-2.52-.271-3.6-.36s-2.085-.164-3.015-.225c-.931-.06-1.845-.09-2.745-.09-3.6 0-6.675.42-9.225 1.26-2.551.841-4.605 2.205-6.165 4.095-1.561 1.89-2.7 4.351-3.42 7.38-.72 3.03-1.08 6.736-1.08 11.115 0 4.32.36 7.98 1.08 10.979.72 3.001 1.845 5.445 3.375 7.336 1.53 1.89 3.524 3.255 5.985 4.095 2.459.841 5.459 1.26 9 1.26a51.3 51.3 0 0 0 3.42-.135c1.319-.09 2.64-.194 3.96-.315a48.37 48.37 0 0 0 3.825-.495 74.458 74.458 0 0 0 3.105-.585v10.261c-2.101.54-4.5.974-7.2 1.305-2.7.328-5.19.494-7.47.494zM219.058 120.544l-.09-1.08 7.11-17.55-20.07-46.62v-1.35h13.41l10.08 27.18 2.52 8.28h.72l2.52-8.28 10.44-27.18h13.05v1.35l-27.99 67.05-11.7-1.8zM265.497 29.824h12.51v43.649h6.48l13.59-19.529h13.86l-16.92 22.77-1.98.63v.36l2.07.72 18.36 24.12h-13.86l-15.3-20.97h-6.3v20.97h-12.51v-72.72zM338.757 103.354c-16.141 0-24.21-8.219-24.21-24.659 0-8.4 2.025-14.761 6.075-19.08 4.05-4.32 10.004-6.48 17.865-6.48 13.62 0 20.43 7.231 20.43 21.69 0 1.439-.045 2.73-.135 3.87-.09 1.14-.285 2.22-.585 3.239h-31.32c.18 2.221.554 4.081 1.125 5.58.569 1.501 1.379 2.716 2.43 3.646 1.049.931 2.354 1.59 3.915 1.979 1.559.392 3.449.585 5.67.585 2.52 0 5.294-.193 8.325-.585 3.029-.39 5.805-.944 8.325-1.665l.45 9.09c-2.7.842-5.67 1.517-8.91 2.025-3.24.509-6.39.765-9.45.765zm-.719-41.31c-3.541 0-6.21 1.006-8.01 3.015-1.8 2.012-2.851 5.235-3.15 9.676h20.97c-.121-4.56-.945-7.815-2.475-9.766-1.531-1.949-3.976-2.925-7.335-2.925zM393.116 35.944h6.39l19.17 44.46 6.03 14.58h.45l6.12-14.58 19.17-44.46h6.39v66.6h-4.41v-59.67h-.45l-8.1 18.99-16.47 38.16h-4.86l-16.47-38.16-8.1-18.99h-.45v59.67h-4.41v-66.6zM481.496 102.994c-4.14 0-7.261-1.035-9.36-3.105-2.101-2.069-3.15-5.085-3.15-9.045 0-4.68 1.454-8.189 4.365-10.53 2.909-2.34 7.605-3.809 14.085-4.409l11.79-.99v-5.04c0-2.279-.225-4.215-.675-5.805-.45-1.59-1.17-2.881-2.16-3.87-.99-.99-2.295-1.694-3.915-2.115-1.62-.419-3.6-.63-5.94-.63-2.101 0-4.261.135-6.48.405-2.22.27-4.77.675-7.65 1.215l-.45-3.96c3.06-.6 5.774-1.02 8.145-1.261a70.659 70.659 0 0 1 7.065-.359c5.699 0 9.9 1.26 12.6 3.78 2.7 2.52 4.05 6.45 4.05 11.789v33.48h-3.87l-.63-6.21h-.36c-3.24 2.101-6.3 3.735-9.18 4.905s-5.641 1.755-8.28 1.755zm.99-4.05c2.52 0 5.205-.585 8.055-1.756 2.849-1.17 5.745-2.714 8.685-4.635v-14.22l-10.71.99c-2.761.301-5.085.706-6.975 1.215-1.89.511-3.42 1.215-4.59 2.115-1.17.899-2.011 1.995-2.52 3.284-.51 1.291-.765 2.836-.765 4.636 0 5.581 2.939 8.371 8.82 8.371zM518.125 53.944h3.96l.45 5.67h.45c1.739-2.1 3.884-3.72 6.435-4.86 2.55-1.139 5.504-1.71 8.865-1.71 6.48 0 11.415 2.011 14.805 6.03 3.389 4.021 5.085 10.32 5.085 18.899 0 8.28-1.996 14.596-5.985 18.945-3.991 4.351-9.616 6.525-16.875 6.525-2.4 0-4.68-.121-6.84-.36-2.16-.24-4.081-.45-5.76-.63v19.89h-4.59V53.944zm17.281 45.54c5.76 0 10.199-1.71 13.32-5.131 3.119-3.42 4.68-8.849 4.68-16.29 0-7.38-1.305-12.703-3.915-15.975-2.61-3.27-6.556-4.905-11.835-4.905-1.921 0-3.766.271-5.535.811-1.771.54-3.361 1.291-4.77 2.25-1.411.96-2.536 2.115-3.375 3.465-.841 1.35-1.26 2.835-1.26 4.455v30.24c1.739.301 3.719.555 5.94.765 2.219.211 4.469.315 6.75.315zM582.294 103.534c-.96 0-1.921-.031-2.88-.09-.96-.061-2.025-.181-3.195-.36s-2.475-.405-3.915-.675l-5.04-.945v-4.229c2.7.72 5.295 1.275 7.785 1.665 2.489.391 4.815.585 6.975.585 3.96 0 6.975-.84 9.045-2.521 2.07-1.679 3.105-4.05 3.105-7.11 0-1.679-.286-3.089-.855-4.229a8.007 8.007 0 0 0-2.34-2.835c-.99-.75-2.146-1.364-3.465-1.845a37.39 37.39 0 0 0-4.32-1.261c-1.8-.359-3.6-.778-5.4-1.26-1.8-.479-3.436-1.199-4.905-2.16-1.471-.959-2.67-2.25-3.6-3.87-.931-1.619-1.395-3.779-1.395-6.479 0-4.14 1.469-7.364 4.41-9.675 2.939-2.31 6.959-3.465 12.06-3.465.9 0 1.74.03 2.52.09.779.061 1.649.15 2.61.27.959.121 2.039.285 3.24.495 1.2.211 2.61.495 4.23.855l-.27 4.229c-2.821-.659-5.13-1.125-6.93-1.395a34.5 34.5 0 0 0-5.13-.405c-3.96 0-6.961.765-9 2.295-2.041 1.53-3.06 3.766-3.06 6.705 0 1.741.315 3.149.945 4.229.63 1.08 1.499 1.98 2.61 2.7 1.109.72 2.385 1.291 3.825 1.71 1.44.421 2.97.811 4.59 1.17a66.786 66.786 0 0 1 5.49 1.62c1.74.601 3.254 1.426 4.545 2.476 1.29 1.05 2.309 2.355 3.06 3.915.75 1.561 1.125 3.54 1.125 5.939 0 4.32-1.471 7.711-4.41 10.17-2.94 2.462-6.96 3.691-12.06 3.691z"/><path class="st1" d="M89.436 107.374a7.312 7.312 0 0 1-1.183-4.025l.057-10.878c.03-5.63-6.047-9.17-10.914-6.358l-.769.444a7.267 7.267 0 0 1-7.733-.29l-6.704-4.576c-6.082-4.152-8.239-12.125-5.082-18.787l2.953-6.233a14.925 14.925 0 0 1 15.021-8.466l15.005 1.551c4.461.461 8.273-3.192 8.013-7.678a7.293 7.293 0 0 0-4.542-6.341L83.28 31.579a7.266 7.266 0 0 0-6.13.317l-6.629 3.517a7.27 7.27 0 0 1-9.544-2.527l-.945-1.383c-2.191-3.446-1.131-8.023 2.351-10.149l2.006-1.225a7.285 7.285 0 0 0 2.315-2.254l3.011-4.642c-2.361-.31-4.769-.223-7.215-.223-29.345 0-53.32 22.861-54.913 52.291h10.095c2.265 0 4.335 1.035 5.346 3.066l3.43 6.771a5.849 5.849 0 0 1 .294 4.58L24.9 85.005a5.97 5.97 0 0 0 2.862 7.255l3.46 1.814c3.184 1.676 4.179 5.768 2.119 8.723l-5.496 7.882C37.303 118.382 49.363 123 62.5 123a54.66 54.66 0 0 0 30.909-9.523l-3.973-6.103z"/><path class="st1" d="M31.221 94.068l-3.46-1.821a5.991 5.991 0 0 1-2.862-7.271l1.852-5.318a5.997 5.997 0 0 0-.294-4.642l-3.43-6.646c-1.01-2.032-3.081-3.066-5.346-3.066H7.587A46.663 46.663 0 0 0 7.5 68.13c0 17.275 7.933 32.567 20.344 42.673l5.496-7.946c2.06-2.955 1.066-7.113-2.119-8.789zM64.389 20.13l-2.006 1.225c-3.481 2.126-4.542 6.703-2.351 10.149l.945 1.383a7.27 7.27 0 0 0 9.544 2.527l6.629-3.517a7.262 7.262 0 0 1 6.13-.317l10.277 4.158a7.293 7.293 0 0 1 4.542 6.341c.26 4.487-3.552 8.14-8.013 7.678l-15.005-1.551a14.927 14.927 0 0 0-15.021 8.466l-2.953 6.233c-3.157 6.662-1 14.635 5.082 18.787l6.704 4.576a7.263 7.263 0 0 0 7.733.29l.769-.444c4.867-2.813 10.944.727 10.914 6.358l-.057 10.878a7.304 7.304 0 0 0 1.183 4.025l3.973 6.102c14.542-9.92 24.092-26.64 24.092-45.597 0-27.99-20.819-51.105-47.785-54.646l-3.011 4.642a7.285 7.285 0 0 1-2.315 2.254z"/><g id="Weltkugel_1_"><path class="st1" d="M89.436 107.374a7.312 7.312 0 0 1-1.183-4.025l.057-10.878c.03-5.63-6.047-9.17-10.914-6.358l-.769.444a7.267 7.267 0 0 1-7.733-.29l-6.704-4.576c-6.082-4.152-8.239-12.125-5.082-18.787l2.953-6.233a14.925 14.925 0 0 1 15.021-8.466l15.005 1.551c4.461.461 8.273-3.192 8.013-7.678a7.293 7.293 0 0 0-4.542-6.341L83.28 31.579a7.266 7.266 0 0 0-6.13.317l-6.629 3.517a7.27 7.27 0 0 1-9.544-2.527l-.945-1.383c-2.191-3.446-1.131-8.023 2.351-10.149l2.006-1.225a7.285 7.285 0 0 0 2.315-2.254l3.011-4.642c-2.361-.31-4.769-.223-7.215-.223-29.345 0-53.32 22.861-54.913 52.291h10.095c2.265 0 4.335 1.035 5.346 3.066l3.43 6.771a5.849 5.849 0 0 1 .294 4.58L24.9 85.005a5.97 5.97 0 0 0 2.862 7.255l3.46 1.814c3.184 1.676 4.179 5.768 2.119 8.723l-5.496 7.882C37.303 118.382 49.363 123 62.5 123a54.66 54.66 0 0 0 30.909-9.523l-3.973-6.103z"/><path class="st1" d="M31.221 94.068l-3.46-1.821a5.991 5.991 0 0 1-2.862-7.271l1.852-5.318a5.997 5.997 0 0 0-.294-4.642l-3.43-6.646c-1.01-2.032-3.081-3.066-5.346-3.066H7.587A46.663 46.663 0 0 0 7.5 68.13c0 17.275 7.933 32.567 20.344 42.673l5.496-7.946c2.06-2.955 1.066-7.113-2.119-8.789zM64.389 20.13l-2.006 1.225c-3.481 2.126-4.542 6.703-2.351 10.149l.945 1.383a7.27 7.27 0 0 0 9.544 2.527l6.629-3.517a7.262 7.262 0 0 1 6.13-.317l10.277 4.158a7.293 7.293 0 0 1 4.542 6.341c.26 4.487-3.552 8.14-8.013 7.678l-15.005-1.551a14.927 14.927 0 0 0-15.021 8.466l-2.953 6.233c-3.157 6.662-1 14.635 5.082 18.787l6.704 4.576a7.263 7.263 0 0 0 7.733.29l.769-.444c4.867-2.813 10.944.727 10.914 6.358l-.057 10.878a7.304 7.304 0 0 0 1.183 4.025l3.973 6.102c14.542-9.92 24.092-26.64 24.092-45.597 0-27.99-20.819-51.105-47.785-54.646l-3.011 4.642a7.285 7.285 0 0 1-2.315 2.254z"/></g></svg>