<?xml version="1.0" encoding="utf-8"?>
<!-- Generator: Adobe Illustrator 19.1.1, SVG Export Plug-In . SVG Version: 6.00 Build 0)  -->
<svg version="1.1" id="Ebene_1" xmlns="http://www.w3.org/2000/svg" xmlns:xlink="http://www.w3.org/1999/xlink" x="0px" y="0px"
	 width="110px" height="40px" viewBox="-250 377 110 40" style="enable-background:new -250 377 110 40;" xml:space="preserve">
<style type="text/css">
	.background{fill:#0078D5;}
	.foreground{fill:#FFFFFF;}
</style>
<title>logo_windowsStore</title>
<g>
	<path class="background" d="M-250,417h110v-40h-110V417z"/>
	<path class="foreground" d="M-222.3,396.3h-10.9v-8l10.9-1.6V396.3L-222.3,396.3z M-222.3,406.8l-10.9-1.6v-8.3h10.9V406.8z M-233.8,396.3
		h-8.4v-6.7l8.4-1.2V396.3L-233.8,396.3z M-233.8,405.2l-8.4-1.2v-7.1h8.4V405.2z M-210.6,392.8c-0.6,0.4-1.3,0.5-2,0.5
		c-0.6,0-1.1-0.1-1.5-0.4s-0.8-0.6-1-1.1s-0.4-1.1-0.4-1.6c0-0.9,0.3-1.7,0.9-2.3c0.6-0.6,1.4-0.9,2.3-0.9c0.7,0,1.2,0.1,1.7,0.3
		v0.8c-0.5-0.3-1.1-0.5-1.8-0.5c-0.4,0-0.8,0.1-1.2,0.3c-0.4,0.2-0.7,0.5-0.8,0.9c-0.2,0.4-0.3,0.9-0.3,1.3c0,0.8,0.2,1.4,0.6,1.8
		c0.4,0.4,1,0.7,1.7,0.7c0.5,0,0.9-0.1,1.2-0.3v-1.7h-1.3V390h2.1C-210.6,390-210.6,392.8-210.6,392.8z M-206.6,390.6
		c0-0.4-0.1-0.7-0.3-0.9c-0.2-0.2-0.5-0.3-0.8-0.3s-0.6,0.1-0.8,0.4c-0.2,0.2-0.4,0.5-0.4,0.9h2.3V390.6z M-205.9,391.2h-3.1
		c0,0.5,0.1,0.9,0.4,1.1c0.3,0.3,0.6,0.4,1,0.4c0.5,0,0.9-0.2,1.4-0.5v0.7c-0.4,0.3-0.9,0.4-1.5,0.4s-1.1-0.2-1.5-0.6
		c-0.3-0.4-0.5-1-0.5-1.7c0-0.4,0.1-0.8,0.3-1.2c0.2-0.4,0.4-0.6,0.7-0.8c0.3-0.2,0.7-0.3,1-0.3c0.6,0,1,0.2,1.3,0.6
		s0.5,0.9,0.5,1.6C-205.9,390.8-205.9,391.2-205.9,391.2z M-203,393.1c-0.2,0.1-0.4,0.1-0.7,0.1c-0.8,0-1.1-0.4-1.1-1.3v-2.6h-0.8
		v-0.6h0.8v-1.1l0.7-0.2v1.3h1.1v0.6h-1.1v2.5c0,0.3,0.1,0.5,0.2,0.6c0.1,0.1,0.3,0.2,0.5,0.2s0.3,0,0.5-0.1L-203,393.1L-203,393.1z
		 M-200.1,393.2h0.7v-4.4h-0.7V393.2L-200.1,393.2z M-199.2,387.2c0,0.1,0,0.2-0.1,0.3c-0.1,0.1-0.2,0.1-0.3,0.1
		c-0.2,0-0.4-0.2-0.5-0.4l0,0c0-0.1,0-0.2,0.1-0.3c0.1-0.1,0.2-0.1,0.3-0.1s0.2,0,0.3,0.1C-199.3,387-199.2,387.1-199.2,387.2z
		 M-196.1,393.1c-0.2,0.1-0.4,0.1-0.7,0.1c-0.8,0-1.1-0.4-1.1-1.3v-2.6h-0.8v-0.6h0.8v-1.1l0.7-0.2v1.3h1.1v0.6h-1.1v2.5
		c0,0.3,0,0.5,0.1,0.6s0.3,0.2,0.5,0.2s0.3,0,0.5-0.1V393.1L-196.1,393.1z M-189.9,391c0-0.6-0.1-1-0.4-1.3c-0.2-0.3-0.6-0.4-1-0.4
		s-0.8,0.2-1.1,0.5s-0.4,0.7-0.4,1.3c0,0.5,0.1,0.9,0.4,1.2c0.3,0.3,0.6,0.4,1.1,0.4s0.8-0.1,1-0.4C-190,392-189.9,391.5-189.9,391
		 M-189.2,391c0,0.7-0.2,1.3-0.6,1.7c-0.4,0.4-0.9,0.6-1.6,0.6c-0.6,0-1.2-0.2-1.5-0.6c-0.4-0.4-0.6-1-0.6-1.6
		c0-0.7,0.2-1.3,0.6-1.7c0.4-0.4,0.9-0.6,1.6-0.6c0.6,0,1.2,0.2,1.5,0.6C-189.4,389.7-189.2,390.3-189.2,391 M-184.7,393.2h-0.7
		v-2.5c0-0.9-0.3-1.4-1-1.4c-0.3,0-0.6,0.1-0.9,0.4c-0.2,0.3-0.3,0.6-0.3,1v2.5h-0.7v-4.4h0.7v0.7l0,0c0.3-0.6,0.8-0.8,1.4-0.8
		c0.5,0,0.8,0.2,1.1,0.5s0.4,0.8,0.4,1.3C-184.7,390.5-184.7,393.2-184.7,393.2z M-203,397l-2.8,9.9h-1.3l-2-7.2
		c-0.1-0.3-0.1-0.7-0.2-1l0,0c0,0.3-0.1,0.7-0.2,1l-2,7.2h-1.3l-2.9-9.9h1.3l2.1,7.6c0.1,0.3,0.1,0.7,0.2,1l0,0c0-0.3,0.1-0.6,0.2-1
		l2.2-7.6h1.1l2.1,7.6c0.1,0.3,0.1,0.6,0.2,0.9l0,0c0-0.2,0.1-0.6,0.2-0.9l2-7.6H-203L-203,397z M-202,406.8h1.1v-7h-1.1V406.8z
		 M-200.7,397.3c0,0.2-0.1,0.4-0.2,0.5c-0.1,0.1-0.3,0.2-0.5,0.2s-0.4-0.1-0.5-0.2s-0.2-0.3-0.2-0.5s0.1-0.4,0.2-0.5
		c0.1-0.1,0.3-0.2,0.5-0.2s0.4,0.1,0.5,0.2C-200.8,396.9-200.7,397.1-200.7,397.3z M-193.3,406.8h-1.1v-4c0-1.5-0.5-2.2-1.6-2.2
		c-0.6,0-1,0.2-1.4,0.6s-0.6,1-0.6,1.6v4h-1.1v-7h1.1v1.2l0,0c0.5-0.9,1.3-1.3,2.3-1.3c0.8,0,1.4,0.3,1.8,0.8
		c0.4,0.5,0.6,1.2,0.6,2.1V406.8L-193.3,406.8z M-186.7,403.7v-1c0-0.6-0.2-1.1-0.6-1.5c-0.4-0.4-0.9-0.6-1.4-0.6
		c-0.7,0-1.2,0.3-1.6,0.8c-0.4,0.5-0.6,1.2-0.6,2.1c0,0.8,0.2,1.4,0.6,1.9c0.4,0.5,0.9,0.7,1.5,0.7s1.1-0.2,1.5-0.7
		C-186.9,404.9-186.7,404.4-186.7,403.7z M-185.6,406.8h-1.1v-1.2l0,0c-0.5,0.9-1.3,1.4-2.4,1.4c-0.9,0-1.6-0.3-2.1-1
		c-0.5-0.6-0.8-1.5-0.8-2.6c0-1.2,0.3-2.1,0.9-2.8s1.4-1.1,2.3-1.1c1,0,1.7,0.4,2.1,1.1l0,0v-4.4h1.1V406.8z M-178.5,403.3
		c0-0.9-0.2-1.6-0.6-2c-0.4-0.5-0.9-0.7-1.7-0.7c-0.7,0-1.3,0.2-1.7,0.7s-0.6,1.2-0.6,2s0.2,1.5,0.6,2c0.4,0.5,1,0.7,1.7,0.7
		s1.3-0.2,1.7-0.7C-178.7,404.9-178.5,404.2-178.5,403.3 M-177.3,403.3c0,1.1-0.3,2-0.9,2.7c-0.6,0.7-1.5,1-2.5,1s-1.9-0.3-2.5-1
		s-0.9-1.5-0.9-2.6c0-1.2,0.3-2.1,1-2.8c0.6-0.7,1.5-1,2.6-1c1,0,1.9,0.3,2.4,1C-177.6,401.3-177.3,402.1-177.3,403.3 M-167.2,399.8
		l-2.1,7h-1.2l-1.4-5c-0.1-0.2-0.1-0.4-0.1-0.6l0,0c0,0.2-0.1,0.4-0.1,0.6l-1.6,5.1h-1.1l-2.1-7h1.2l1.4,5.3c0,0.2,0.1,0.4,0.1,0.6
		h0.1c0-0.2,0.1-0.4,0.1-0.6l1.6-5.3h1l1.5,5.3c0,0.2,0.1,0.4,0.1,0.6h0.1c0-0.2,0-0.4,0.1-0.6l1.4-5.3
		C-168.3,399.8-167.2,399.8-167.2,399.8z M-162.4,405c0,0.6-0.2,1.1-0.7,1.5s-1.1,0.6-1.9,0.6c-0.7,0-1.2-0.1-1.7-0.4v-1.2
		c0.6,0.5,1.2,0.7,1.8,0.7c0.9,0,1.3-0.3,1.3-1c0-0.2-0.1-0.5-0.3-0.6c-0.2-0.2-0.6-0.4-1.2-0.7c-0.6-0.3-1.1-0.6-1.3-0.9
		c-0.3-0.3-0.4-0.7-0.4-1.2c0-0.6,0.2-1.1,0.7-1.5s1.1-0.6,1.8-0.6c0.6,0,1.1,0.1,1.5,0.3v1.1c-0.5-0.3-1-0.5-1.6-0.5
		c-0.4,0-0.7,0.1-0.9,0.3c-0.2,0.2-0.3,0.4-0.3,0.7c0,0.3,0.1,0.6,0.3,0.7c0.2,0.2,0.5,0.4,1.1,0.6c0.7,0.3,1.1,0.6,1.4,0.9
		S-162.4,404.5-162.4,405 M-156.9,406.8v-8.5c-0.2,0.2-0.5,0.4-1,0.7c-0.4,0.2-0.8,0.4-1.3,0.5v-1.1c0.6-0.2,1.1-0.4,1.6-0.7
		c0.6-0.3,1-0.6,1.4-0.9h0.4v10.1h-1.1V406.8z M-148.8,402c0-2.8-0.7-4.2-2-4.2c-1.4,0-2.1,1.4-2.1,4.3c0,2.7,0.7,4,2.1,4
		C-149.4,406-148.8,404.7-148.8,402 M-147.6,401.9c0,1.6-0.3,2.9-0.9,3.8s-1.4,1.4-2.4,1.4s-1.7-0.4-2.3-1.3
		c-0.5-0.9-0.8-2.1-0.8-3.6c0-1.7,0.3-3,0.8-3.9c0.6-0.9,1.4-1.4,2.5-1.4C-148.7,396.8-147.6,398.5-147.6,401.9"/>
</g>
</svg>
