<svg id="Personen_x2F_Person_x5F_Blau" xmlns="http://www.w3.org/2000/svg" viewBox="0 0 400 400"><style>.st0,.st1,.st2{fill:#7da4ba;stroke:#fff;stroke-width:16;stroke-miterlimit:10}.st1,.st2{fill:#0071bc}.st2{fill:#001826}</style><path class="st0" d="M390 200c0-104.934-85.066-190-190-190S10 95.066 10 200c0 62.383 30.066 117.742 76.497 152.382C91.853 294.401 140.621 249 200 249c-43.354 0-78.5-35.146-78.5-78.5S156.646 92 200 92s78.5 35.146 78.5 78.5S243.354 249 200 249c59.379 0 108.147 45.401 113.503 103.382C359.934 317.742 390 262.383 390 200z"/><circle class="st1" cx="200" cy="170.5" r="78.5"/><path class="st2" d="M200 249c-59.379 0-108.147 45.401-113.503 103.382C118.167 376.01 157.449 390 200 390s81.833-13.99 113.503-37.618C308.147 294.401 259.379 249 200 249z"/><path class="st0" d="M390 200c0-104.934-85.066-190-190-190S10 95.066 10 200c0 62.383 30.066 117.742 76.497 152.382C91.853 294.401 140.621 249 200 249c-43.354 0-78.5-35.146-78.5-78.5S156.646 92 200 92s78.5 35.146 78.5 78.5S243.354 249 200 249c59.379 0 108.147 45.401 113.503 103.382C359.934 317.742 390 262.383 390 200z"/><circle class="st1" cx="200" cy="170.5" r="78.5"/><path class="st2" d="M200 249c-59.379 0-108.147 45.401-113.503 103.382C118.167 376.01 157.449 390 200 390s81.833-13.99 113.503-37.618C308.147 294.401 259.379 249 200 249z"/></svg>